<svg height="460pt" viewBox="-55 0 460 460.005" width="460pt" xmlns="http://www.w3.org/2000/svg"><path d="m347.640625 83.789062-80.957031-81.1875c-1.472656-1.578124-3.507813-2.5117182-5.664063-2.601562h-252.988281c-4.417969 0-8.02734375 4.078125-8.02734375 8.496094v443.007812c0 4.417969 3.60937475 8.5 8.02734375 8.5h333.941406c4.421875 0 8.03125-4.074218 8.03125-8.5v-362.054687c-.003906-2.125-.851562-4.160157-2.363281-5.660157zm-78.636719-55.980468 53.65625 53.191406h-53.65625zm65 416.191406h-318v-428h237v73.449219c0 4.421875 3.597656 7.550781 8.015625 7.550781h72.984375zm0 0"/><path d="m261.503906 373h-173c-4.417968 0-8 3.582031-8 8s3.582032 8 8 8h173c4.417969 0 8-3.582031 8-8s-3.582031-8-8-8zm0 0"/><path d="m232.902344 357c4.417968 0 8-3.582031 8-8s-3.582032-8-8-8h-115.800782c-4.417968 0-8 3.582031-8 8s3.582032 8 8 8zm0 0"/><path d="m183.003906 132.027344c10.769532-3.757813 17.957032-13.953125 17.871094-25.363282 0-14.707031-11.605469-26.675781-25.871094-26.675781s-25.875 11.96875-25.875 26.675781c-.082031 11.410157 7.101563 21.605469 17.875 25.363282v6.972656h-78.378906c-4.417969 0-8 3.582031-8 8s3.582031 8 8 8h6.992188l-27.5625 56.433594c-2.722657 1.390625-4.433594 4.191406-4.433594 7.246094 0 22.988281 19.886718 41.738281 44.332031 41.738281s44.332031-18.679688 44.332031-41.664063c0-3.082031-1.707031-5.90625-4.4375-7.332031l-27.558594-56.421875h46.714844v115h-50.824218c-4.527344.175781-8.125 3.875-8.175782 8.40625v25.601562c.085938 4.449219 3.726563 8.007813 8.175782 7.988282h117.644531c4.449219.019531 8.09375-3.539063 8.179687-7.988282v-25.601562c-.054687-4.53125-3.652344-8.230469-8.179687-8.40625h-50.820313v-115h46.710938l-27.558594 56.433594c-2.722656 1.390625-4.4375 4.191406-4.433594 7.246094 0 22.988281 19.886719 41.738281 44.328125 41.738281 24.445313 0 44.332031-18.679688 44.332031-41.664063.003907-3.082031-1.707031-5.90625-4.433593-7.332031l-27.558594-56.421875h6.988281c4.417969 0 8-3.582031 8-8s-3.582031-8-8-8h-78.375zm-8-36.039063c5.441406 0 9.871094 4.789063 9.871094 10.675781 0 5.886719-4.429688 10.675782-9.871094 10.675782-5.445312 0-9.875-4.789063-9.875-10.675782 0-5.882812 4.429688-10.675781 9.875-10.675781zm-67.050781 70.800781 21.664063 44.210938h-43.328126zm0 77.902344c-12.542969 0-23.207031-7.691406-26.925781-17.691406h53.851562c-3.71875 10-14.382812 17.6875-26.925781 17.6875zm118.050781 51.308594h-102v-10h102zm16.046875-129.214844 21.664063 44.214844h-43.328125zm0 77.902344c-12.542969 0-23.207031-7.691406-26.921875-17.691406h53.847656c-3.714843 10.003906-14.382812 17.691406-26.925781 17.691406zm0 0"/></svg>