<svg height="450pt" viewBox="-36 0 450 450.00339" width="450pt" xmlns="http://www.w3.org/2000/svg"><path d="m377.46875 251.539062c-.054688-.597656-.171875-1.1875-.359375-1.753906l-.007813-.035156-30-91.125c-1.066406-3.308594-4.121093-5.570312-7.597656-5.621094h-41.5v-96.097656c.074219-2.097656-.703125-4.136719-2.152344-5.65625l-49.046874-49.027344c-1.476563-1.46875-3.488282-2.269531-5.570313-2.21874975h-153.625c-2.054687-.04296875-4.035156.76171875-5.472656 2.23046875-1.441407 1.464844-2.210938 3.460937-2.132813 5.515625v145.253906h-41.5c-3.476562.050782-6.53125 2.3125-7.601562 5.621094l-30 91.0625c0 .011719 0 .054688-.007813.066406-.183593.574219-.304687 1.167969-.355469 1.769532-.011718.097656-.261718.207031-.265624.308593-.007813.136719-.273438.28125-.273438.421875v190c0 4.421875 4.082031 7.75 8.5 7.75h361c2.046875.035156 4.011719-.777344 5.433594-2.246094s2.171875-3.460937 2.066406-5.503906v-190c0-.140625.238281-.277344.230469-.414062-.003907-.101563.246093-.203125.238281-.300782zm-128.464844-224.476562 22.078125 21.941406h-22.078125zm-153-11.058594h137v40.902344c.101563 4.484375 3.75 8.070312 8.230469 8.097656h40.769531v144h-186zm-51.714844 153h35.714844v40h-12.394531c-4.417969 0-8 3.578125-8 8 0 4.417969 3.582031 8 8 8h242.789063c4.417968 0 8-3.582031 8-8 0-4.421875-3.582032-8-8-8h-12.394532v-40h35.714844l24.722656 75h-338.875zm316.714844 265h-345v-174h345zm0 0"/></svg>