<svg height="476pt" viewBox="0 -17 476.00045 476" width="476pt" xmlns="http://www.w3.org/2000/svg"><path d="m53.554688 442h368.890624c14.234376-.011719 27.878907-5.6875 37.925782-15.769531 10.046875-10.085938 15.671875-23.75 15.628906-37.984375v-292.8125c.03125-14.199219-5.605469-27.828125-15.660156-37.859375-10.050782-10.03125-23.691406-15.636719-37.894532-15.574219h-16.445312v-34.070312c.070312-2.078126-.703125-4.097657-2.152344-5.59375-1.445312-1.496094-3.4375-2.33984425-5.515625-2.335938h-85.894531c-4.417969 0-8.4375 3.511719-8.4375 7.929688v34.070312h-132v-34.070312c0-4.417969-4.019531-7.929688-8.4375-7.929688h-85.890625c-2.082031-.00390625-4.074219.839844-5.519531 2.335938-1.449219 1.496093-2.222656 3.515624-2.152344 5.59375v34.070312h-16.445312c-14.203126-.0625-27.839844 5.542969-37.894532 15.574219-10.054687 10.03125-15.691406 23.660156-15.660156 37.859375v292.8125c-.0390625 14.234375 5.582031 27.898437 15.628906 37.984375 10.046875 10.082031 23.691406 15.757812 37.925782 15.769531zm368.890624-16h-368.890624c-9.992188-.003906-19.574219-3.992188-26.621094-11.078125-7.046875-7.082031-10.980469-16.683594-10.933594-26.675781v-236.246094h444v236.246094c.046875 9.992187-3.886719 19.59375-10.933594 26.675781-7.046875 7.085937-16.628906 11.074219-26.621094 11.078125zm-102.445312-410h70v68h-70zm-234 0h70v68h-70zm-32.445312 42h16.445312v34.332031c-.0625 2.050781.726562 4.039063 2.179688 5.492188 1.449218 1.449219 3.4375 2.238281 5.492187 2.175781h85.890625c4.417969 0 8.4375-3.25 8.4375-7.667969v-34.332031h132v34.332031c0 4.417969 4.019531 7.667969 8.4375 7.667969h85.894531c2.050781.0625 4.039063-.726562 5.488281-2.175781 1.453126-1.453125 2.242188-3.441407 2.179688-5.492188v-34.332031h16.445312c9.960938-.066406 19.535157 3.851562 26.589844 10.882812 7.050782 7.03125 11 16.589844 10.964844 26.550782v40.566406h-444v-40.566406c-.035156-9.960938 3.914062-19.519532 10.96875-26.550782 7.050781-7.03125 16.625-10.949218 26.585938-10.882812zm0 0"/><path d="m325.851562 252.144531-55.746093-8.097656-24.929688-50.515625c-1.347656-2.730469-4.128906-4.460938-7.175781-4.460938s-5.824219 1.730469-7.171875 4.460938l-24.929687 50.515625-55.746094 8.097656c-3.011719.4375-5.515625 2.550781-6.457032 5.445313-.9375 2.894531-.15625 6.074218 2.027344 8.199218l40.335938 39.320313-9.523438 55.519531c-.511718 3.003906.71875 6.035156 3.183594 7.824219 2.464844 1.792969 5.730469 2.027344 8.425781.609375l49.855469-26.210938 49.859375 26.210938c2.695313 1.417969 5.960937 1.183594 8.425781-.609375 2.464844-1.789063 3.699219-4.820313 3.183594-7.824219l-9.523438-55.519531 40.339844-39.320313c2.179688-2.125 2.964844-5.304687 2.023438-8.199218-.941406-2.894532-3.445313-5.007813-6.457032-5.445313zm-50.085937 44.445313c-1.882813 1.835937-2.746094 4.484375-2.300781 7.078125l7.496094 43.691406-39.238282-20.628906c-2.328125-1.226563-5.113281-1.226563-7.445312 0l-39.234375 20.628906 7.492187-43.691406c.445313-2.59375-.414062-5.242188-2.300781-7.078125l-31.738281-30.941406 43.863281-6.375c2.609375-.378907 4.859375-2.015626 6.027344-4.375l19.613281-39.75 19.617188 39.75c1.164062 2.363281 3.417968 4 6.023437 4.378906l43.867187 6.371094zm0 0"/></svg>