<?xml version="1.0" encoding="UTF-8"?>
<svg width="150px" height="25px" viewBox="0 0 150 25" version="1.1" xmlns="http://www.w3.org/2000/svg" xmlns:xlink="http://www.w3.org/1999/xlink">
    <!-- Generator: Sketch 49.3 (51167) - http://www.bohemiancoding.com/sketch -->
    <title>Group 2</title>
    <desc>Created with Sketch.</desc>
    <defs>
        <polygon id="path-1" points="0 0.125770492 11.2481443 0.125770492 11.2481443 16 0 16"></polygon>
        <polygon id="path-3" points="0.0743930502 0.014026862 12.7908263 0.014026862 12.7908263 15.2187806 0.0743930502 15.2187806"></polygon>
    </defs>
    <g id="메뉴들" stroke="none" stroke-width="1" fill="none" fill-rule="evenodd">
        <g id="01-Sign-up" transform="translate(-492.000000, -266.000000)">
            <g id="Group-4" transform="translate(492.000000, 266.000000)">
                <g id="Group-2">
                    <g id="Page-1">
                        <path d="M24.1512,15.2 C24.1008,15.3776 24.0516,15.5564 24,15.7352 C24.0516,15.5564 24.1008,15.3776 24.1512,15.2" id="Fill-1" fill="#338CCE"></path>
                        <path d="M1.6,5.8088 C1.6492,5.738 1.6996,5.6696 1.7476,5.6 C1.6996,5.6696 1.6492,5.738 1.6,5.8088" id="Fill-3" fill="#338CCE"></path>
                        <path d="M1.6,7.2 C1.85803468,6.9301429 2.13086705,6.66586906 2.4,6.4 C2.1299422,6.66507145 1.85988439,6.93040877 1.6,7.2" id="Fill-5" fill="#338CCE"></path>
                        <path d="M0.700714043,6.65046155 C0.411560694,7.42383581 0.192261136,8.23319972 0.0657191431,9.07972605 C0.0399863992,9.25197792 0.0190411425,9.42576906 0,9.6 C0.137422645,8.46064549 0.411778307,7.38359484 0.8,6.4 C0.766759606,6.48334059 0.732485549,6.56558169 0.700714043,6.65046155" id="Fill-7" fill="#338CCE"></path>
                        <path d="M1.6,6.4 C1.8608506,6.13109713 2.13478735,5.86722572 2.4,5.6 C2.13304253,5.86666667 1.86259542,6.13109713 1.6,6.4" id="Fill-9" fill="#338CCE"></path>
                        <path d="M0.0671335575,11.2 C0.0568660723,11.2996365 0.0460062321,11.3991856 0.0364298275,11.4987347 C-0.00760188813,11.959772 -0.0103662111,12.4210714 0.0212260513,12.8805355 L0,12.8692609 C0,12.8692609 0.049856539,13.5824484 0.276531022,14.5737441 C0.315725172,14.7726675 0.359658162,14.9715035 0.426001913,15.1661443 C0.71892142,16.2269233 1.20494863,17.4758755 2.00600993,18.5053652 C2.00995897,18.5104344 2.01371055,18.5148044 2.01765958,18.5197863 C2.37090056,19.0399936 2.76521149,19.5335439 3.2,20 C1.21561102,17.856854 0.0239903742,15.116326 0.0239903742,12.1289792 C0.0239903742,11.8160857 0.0414648444,11.5070377 0.0671335575,11.2" id="Fill-11" fill="#338CCE"></path>
                        <path d="M24.0168,13.6 C24.0108,13.6456 24.006,13.6912 24,13.7368 C24.006,13.6912 24.0108,13.6456 24.0168,13.6" id="Fill-13" fill="#338CCE"></path>
                        <path d="M24.0204,13.6 C24.0144,13.6384 24.0072,13.6756 24,13.714 C24.0072,13.6756 24.0144,13.6384 24.0204,13.6" id="Fill-15" fill="#338CCE"></path>
                        <path d="M4.76032285,13.4541568 C4.74961308,13.2924553 4.76032285,12.2028342 4.76032285,12.0384207 C4.76032285,8.0055431 8.03921249,4.73625622 12.0840207,4.73625622 C15.146165,4.73625622 17.7680187,6.61082477 18.8617753,9.27118832 L19.711502,9.48170545 C19.8550639,9.51924936 19.9983709,9.55823402 20.1415928,9.59713392 C20.4477562,9.68044243 20.736835,9.75900498 21.017414,9.81934644 C21.4186904,9.90562117 21.7752577,9.96316591 22.1070056,9.99528587 C22.696638,10.0519831 23.1410934,10.0763909 23.5539296,10.0730009 C23.7040364,10.0718144 23.8525282,10.0660515 24,10.0581698 C23.2921352,5.79570653 20.3369186,2.29098625 16.3866284,0.796094319 L16.3866284,0.817620627 C15.1965689,0.355991489 13.9513456,0.0962350529 12.6633683,0.0191979892 C11.4930284,-0.0508896365 10.3337383,0.073776503 9.19578267,0.346584323 C8.39815979,0.53777862 7.62722633,0.815332397 6.88451227,1.17026224 C5.88722867,1.64689199 4.96984336,2.24208594 4.13694623,2.96643774 C3.3878573,3.61798993 2.73294636,4.34259598 2.1717884,5.13974738 C2.16830347,5.14466283 2.16473355,5.14949354 2.16133362,5.15449374 C2.06826062,5.28712631 1.97909753,5.4228946 1.89120942,5.55959514 C1.86528497,5.60010528 1.83868054,5.64002217 1.81326609,5.68087131 C1.75181241,5.77892618 1.69333366,5.87918454 1.63459992,5.9792734 C1.58513099,6.06402264 1.53489706,6.14826339 1.48746808,6.23428388 C1.46069366,6.2825062 1.4354492,6.33183026 1.40926976,6.38047632 C0.802722775,7.51772644 0.374076973,8.76303185 0.15937158,10.0803741 C0.108032682,10.4276765 0.0693585117,10.7772672 0.0370592048,11.1270273 C0.014959679,11.4247514 0,11.7244247 0,12.027827 C0,14.9245562 1.02584299,17.5819535 2.73430633,19.6600898 C2.76057076,19.691786 2.78726019,19.7231432 2.81377962,19.7545004 C2.88058819,19.83408 2.94935171,19.9119645 3.01811524,19.9897643 C3.26384496,20.2645214 3.52249441,20.5293628 3.79737851,20.7818308 C4.11076679,21.0698087 4.45152448,21.3282092 4.77978743,21.6 C4.77978743,21.4649945 4.77961744,21.3299889 4.77961744,21.1948986 C4.77978743,18.3057121 4.76329779,16.3434281 4.76032285,13.4541568" id="Fill-17" fill="#6F7CFF"></path>
                        <path d="M21.9401458,17.4491042 C21.1354482,17.2170341 20.4363849,16.9589563 19.8031816,16.6600479 L18.722905,16.2 C17.4181878,18.4438588 15.1755893,19.671411 12.5043411,19.8375521 C12.1094392,19.8621049 11.7995097,19.890659 11.4774412,19.8785645 C10.619539,19.882111 9.76163686,19.8801104 8.90382078,19.8771095 C8.25503495,19.8747451 7.61468609,19.9327626 6.99895942,20.1601039 C6.27751233,20.426457 5.68537473,20.8710457 5.32542601,21.6046307 C5.20429522,21.8515234 5.10916407,22.1125112 5.00249665,22.3672244 C5.00163574,22.3664969 5.00086092,22.3657694 5,22.3651329 L5,22.3732262 C5,22.3732262 5.00266884,22.3674063 5.00292711,22.3668607 C5.02393345,22.3896857 5.04192658,22.4169667 5.06586003,22.4358815 C6.00236377,23.1764686 7.01970748,23.7653736 8.11556666,24.1935937 C9.06352058,24.5639781 10.0431562,24.7954116 11.0504272,24.9211768 C12.2734436,25.0739502 13.4834601,24.9959267 14.6848675,24.7624016 C15.3940035,24.6244509 16.0835968,24.4026567 16.7561438,24.1232088 L16.7561438,24.1617659 C19.6667266,22.9948683 22.0440583,20.6867174 23.4,17.7547418 C22.9169404,17.6912681 22.4289735,17.5899648 21.9401458,17.4491042" id="Fill-19" fill="#6F7CFF"></path>
                        <path d="M8,13.4255599 C8.14821965,13.1757969 8.33687894,13.0010594 8.55350086,12.8466212 C9.09620602,12.459968 9.71448108,12.201654 10.4109807,12.0738354 C11.0054522,11.9647546 11.5970034,11.9881025 12.1929792,12.0689279 C12.7855923,12.1492328 13.3590033,12.2863459 13.9113538,12.4763265 C14.620065,12.7199923 15.3182459,12.9852958 16.0188161,13.2453201 C16.2417207,13.3280787 16.4579887,13.4235523 16.6766459,13.5141184 C16.7223948,13.5330793 16.7657546,13.5562041 16.8,13.6 C16.5815198,13.5598476 16.3609159,13.5262385 16.1450903,13.4779068 C15.7772401,13.3955943 15.4140799,13.2981131 15.0456987,13.2178082 C14.5865275,13.1176502 14.1257635,13.0216561 13.6622563,12.9372616 C13.3850192,12.8867736 13.1015878,12.8591131 12.8201917,12.8260245 C12.1417438,12.7464632 11.4604644,12.7300304 10.7776806,12.7747186 C9.89172524,12.8325678 9.03842248,12.9966724 8.23954066,13.3343247 C8.17503193,13.3615391 8.10804549,13.3845896 8,13.4255599" id="Fill-21" fill="#6F7CFF"></path>
                        <path d="M31.2654999,8.35484216 C30.8042558,7.61753327 30.1666206,7.07178786 29.3973619,6.6871698 C29.1733513,6.57524901 28.9340436,6.49481691 28.7017363,6.4 C28.7019956,6.41701617 28.7078724,6.43245352 28.7133171,6.44411924 C28.730429,6.47262572 28.7375158,6.48315118 28.7620601,6.50332499 C29.2133655,6.87434767 29.6333854,7.27536792 29.9712163,7.75857452 C30.7071154,8.81112111 30.9172982,9.95594096 30.5216498,11.1895256 C30.2647117,11.9905135 29.7759848,12.6366017 29.1274602,13.1581386 C28.1812918,13.919042 27.0787827,14.2955906 25.9011713,14.4347899 C24.8825798,14.5553064 23.8606177,14.5354835 22.8673483,14.2182284 C22.3849304,14.0642057 21.8981048,13.9187789 21.4287369,13.7298468 C20.6408106,13.4126794 19.866885,13.0599009 19.0841441,12.7294012 C18.2785874,12.389341 17.4760555,12.0404218 16.6600415,11.728254 C15.9420321,11.4536271 15.2133926,11.2032087 14.4778392,10.981823 C13.854896,10.7942943 13.215878,10.6598315 12.5648471,10.6050114 C11.6796076,10.5305437 10.8037019,10.5511561 9.95337756,10.8583242 C9.51806061,11.0155922 9.11765889,11.2353113 8.75571579,11.5244985 C8.19733127,11.9705151 7.78336101,12.5351187 7.47655633,13.1811192 C7.3768232,13.3911022 7.30172088,13.6130141 7.2,13.8679935 C7.29912816,13.8048407 7.34225366,13.7387057 7.35003181,13.7287942 C7.72053087,13.2562885 8.05965807,12.9207016 8.54907636,12.5739752 C9.01740722,12.2421599 9.52834505,12.0048983 10.0985696,11.9328866 C10.6387187,11.8646465 11.1815469,11.860524 11.7159056,11.9872682 C12.1247769,12.0841902 12.5413399,12.1648854 12.934482,12.3088212 C13.5390168,12.5302945 14.1326623,12.7857125 14.7193938,13.0527962 C15.3573747,13.3431236 15.9843798,13.6585367 16.6119898,13.9715816 C17.2768485,14.3030461 17.9324599,14.6537196 18.6001706,14.9790442 C19.1930382,15.2678805 19.7958446,15.5361045 20.3964039,15.8085386 C21.0159765,16.0895685 21.6581922,16.3052529 22.31268,16.4864663 C23.0091699,16.6794332 23.7203518,16.7914417 24.4387068,16.7996866 C24.9391874,16.8053879 25.4413964,16.7320605 25.9414448,16.6801349 C26.5579062,16.6160173 27.150601,16.4459433 27.732752,16.2349077 C28.4467859,15.9761566 29.1170029,15.6313599 29.7194636,15.162889 C30.8923217,14.2507696 31.6858655,13.0932315 31.9351119,11.588967 C32.1285285,10.4215174 31.8849861,9.3452008 31.2654999,8.35484216" id="Fill-23" fill="#6F7CFF"></path>
                        <path d="M21.4797155,11.4824755 C21.9517395,11.6187541 22.4466712,11.7118838 22.9391386,11.7964556 C23.3973816,11.8751304 23.8636559,11.9352512 24.3303866,11.9707052 C24.9510818,12.0178094 25.5727809,12.0083167 26.1951188,11.9407167 C26.7460874,11.8808836 27.255804,11.7400024 27.7372283,11.5328877 C28.2963194,11.2924046 28.7563877,10.9662708 29.1089455,10.5577227 C29.1099494,10.556644 29.1109534,10.5557091 29.1119573,10.5546304 C29.8537615,9.81131873 29.5294047,8.95955952 29.5294047,8.95955952 C29.5294047,8.95955952 29.5290396,8.95970335 29.5290396,8.95970335 C29.527123,8.95035443 29.5255715,8.94093358 29.5235637,8.93158466 C29.4519205,8.59782795 29.2667432,8.30089163 29.0082799,8 C29.0338342,8.1659075 29.0555553,8.30376823 29.0763638,8.44177278 C29.1335871,8.82220221 29.0635867,9.18990271 28.8857106,9.54437089 C28.6475995,10.0189368 28.1718336,10.3149383 27.6319082,10.558298 C26.936558,10.8717028 26.1698384,11.0197035 25.3896115,11.1119703 C24.855527,11.1751834 24.3112209,11.2064664 23.7711129,11.2097025 C23.1953203,11.2130825 22.6173372,11.1813681 22.0436437,11.1375719 C21.5869522,11.1027652 21.1313559,11.0412061 20.6825132,10.9649764 C20.187034,10.8807641 19.6999512,10.7663476 19.2092178,10.6650196 C19.2061148,10.6682558 19.203103,10.67142 19.2,10.6746562 C19.3607182,10.7434787 19.5162342,10.8216501 19.6829759,10.8795416 C20.2788469,11.0863686 20.869242,11.3062841 21.4797155,11.4824755" id="Fill-25" fill="#6F7CFF"></path>
                    </g>
                    <g id="Page-1" transform="translate(38.000000, 4.000000)">
                        <g id="Group-3">
                            <mask id="mask-2" fill="white">
                                <use xlink:href="#path-1"></use>
                            </mask>
                            <g id="Clip-2"></g>
                            <path d="M-1.28992629e-05,13.7926557 L1.94016523,11.4209836 C3.0257672,12.3601311 4.41153501,13.0178361 5.65876474,13.0178361 C7.06775123,13.0178361 7.76057064,12.4540328 7.76057064,11.5383607 C7.76057064,10.5754754 6.90599447,10.2701639 5.5894957,9.70662295 L3.62622789,8.86111475 C2.07870332,8.22727869 0.600576781,6.9122623 0.600576781,4.68131148 C0.600576781,2.14518033 2.81783108,0.125639344 5.95905958,0.125639344 C7.6913016,0.125639344 9.51590233,0.830163934 10.8094404,2.14518033 L9.07706941,4.32904918 C8.08395516,3.55422951 7.16010995,3.10793443 5.95905958,3.10793443 C4.78109889,3.10793443 4.04197113,3.62452459 4.04197113,4.4935082 C4.04197113,5.43278689 5.03521437,5.76157377 6.32862346,6.30163934 L8.2686726,7.10006557 C10.0934023,7.85140984 11.2481443,9.09613115 11.2481443,11.2565246 C11.2481443,13.7926557 9.16955713,16 5.56640602,16 C3.60313821,16 1.52442199,15.2486557 -1.28992629e-05,13.7926557" id="Fill-1" fill="#6F7CFF" mask="url(#mask-2)"></path>
                        </g>
                        <path d="M22.5522596,8.10052026 C24.4559644,8.10052026 25.3725095,7.25902812 25.3725095,5.66976051 C25.3725095,4.08049289 24.338361,3.49639528 22.4582819,3.49639528 L20.860136,3.49639528 L20.860136,8.10052026 L22.5522596,8.10052026 Z M17.4054054,0.761904762 L22.6697318,0.761904762 C26.0304846,0.761904762 28.7567568,1.97721938 28.7567568,5.66976051 C28.7567568,9.24561264 26.0069902,10.8348803 22.7638407,10.8348803 L20.860136,10.8348803 L20.860136,16 L17.4054054,16 L17.4054054,0.761904762 Z" id="Fill-4" fill="#6F7CFF"></path>
                        <path d="M39.2666291,7.77322461 C41.0665535,7.77322461 42.0482356,7.0019481 42.0482356,5.50625381 C42.0482356,4.01042901 41.0665535,3.49628817 39.2666291,3.49628817 L37.4902023,3.49628817 L37.4902023,7.77322461 L39.2666291,7.77322461 Z M34.0540541,0.761904762 L39.5471656,0.761904762 C42.7727483,0.761904762 45.4141518,1.88377337 45.4141518,5.50625381 C45.4141518,7.7498605 44.3388705,9.17546247 42.7026468,9.90001077 L46.1621622,16 L42.3052744,16 L39.3835954,10.5077385 L37.4902023,10.5077385 L37.4902023,16 L34.0540541,16 L34.0540541,0.761904762 Z" id="Fill-6" fill="#6F7CFF"></path>
                        <polygon id="Fill-8" fill="#6F7CFF" points="51.4594595 0.761904762 61.0618864 0.761904762 61.0618864 3.65983691 54.9192511 3.65983691 54.9192511 6.72144831 60.1440334 6.72144831 60.1440334 9.59627741 54.9192511 9.59627741 54.9192511 13.1019373 61.2972973 13.1019373 61.2972973 16 51.4594595 16"></polygon>
                        <path d="M70.9604945,9.68973383 L74.1971365,9.68973383 L73.8478408,8.28736544 C73.428712,6.76817652 73.0095832,4.96861835 72.6137321,3.37933713 L72.5206212,3.37933713 C72.1480478,4.99198246 71.7521967,6.76817652 71.3330679,8.28736544 L70.9604945,9.68973383 Z M70.5879211,0.761904762 L74.7093762,0.761904762 L79.4594595,16 L75.8270964,16 L74.8957279,12.377389 L70.2619031,12.377389 L69.3305347,16 L65.8378378,16 L70.5879211,0.761904762 Z" id="Fill-10" fill="#6F7CFF"></path>
                        <path d="M88.1466214,13.2187817 C90.7767188,13.2187817 92.530117,11.9567393 92.530117,8.31066488 C92.530117,4.66485156 90.7767188,3.54299256 88.1466214,3.54299256 L87.4831091,3.54299256 L87.4831091,13.2187817 L88.1466214,13.2187817 Z M84,0.761904762 L88.3598082,0.761904762 C93.07506,0.761904762 96.1081081,3.07558394 96.1081081,8.31066488 C96.1081081,13.5460069 93.07506,16 88.5493075,16 L84,16 L84,0.761904762 Z" id="Fill-12" fill="#6F7CFF"></path>
                        <g id="Group-16" transform="translate(99.135135, 0.761905)">
                            <mask id="mask-4" fill="white">
                                <use xlink:href="#path-3"></use>
                            </mask>
                            <g id="Clip-15"></g>
                            <path d="M4.70495676,9.80834514 L0.0743930502,0.014026862 L3.7882695,0.014026862 L5.15155135,3.51188604 C5.57464788,4.65461294 5.97424633,5.70408791 6.39734286,6.86999756 L6.49133514,6.86999756 C6.938061,5.70408791 7.36102625,4.65461294 7.78425405,3.51188604 L9.17103398,0.014026862 L12.7909181,0.014026862 L8.16022317,9.80834514 L8.16022317,15.2187806 L4.70495676,15.2187806 L4.70495676,9.80834514 Z" id="Fill-14" fill="#6F7CFF" mask="url(#mask-4)"></path>
                        </g>
                    </g>
                </g>
            </g>
        </g>
    </g>
</svg>