<?xml version="1.0" encoding="UTF-8"?>
<svg width="149px" height="24px" viewBox="0 0 149 24" version="1.1" xmlns="http://www.w3.org/2000/svg" xmlns:xlink="http://www.w3.org/1999/xlink">
    <!-- Generator: Sketch 49.3 (51167) - http://www.bohemiancoding.com/sketch -->
    <title>Group 5</title>
    <desc>Created with Sketch.</desc>
    <defs>
        <polygon id="path-1" points="0 0.125770492 10.8999875 0.125770492 10.8999875 16 0 16"></polygon>
        <polygon id="path-3" points="0.0751744898 0.0138076923 12.9251837 0.0138076923 12.9251837 14.9809872 0.0751744898 14.9809872"></polygon>
    </defs>
    <g id="메뉴들" stroke="none" stroke-width="1" fill="none" fill-rule="evenodd">
        <g id="01-Main-home" transform="translate(-208.000000, -23.000000)">
            <g id="Group-6" transform="translate(208.000000, 23.000000)">
                <g id="Group-5">
                    <g id="Page-1">
                        <path d="M24.056,15.4285714 C24.0373333,15.492 24.0191111,15.5558571 24,15.6197143 C24.0191111,15.5558571 24.0373333,15.492 24.056,15.4285714" id="Fill-1" fill="#338CCE"></path>
                        <path d="M1.77777778,5.21742857 C1.796,5.19214286 1.81466667,5.16771429 1.83244444,5.14285714 C1.81466667,5.16771429 1.796,5.19214286 1.77777778,5.21742857" id="Fill-3" fill="#338CCE"></path>
                        <path d="M1.77777778,6.42857143 C1.92113038,6.28400513 2.07270392,6.14242985 2.22222222,6 C2.07219011,6.14200256 1.922158,6.28414756 1.77777778,6.42857143" id="Fill-5" fill="#338CCE"></path>
                        <path d="M0.778571159,6.26835166 C0.45728966,7.09696694 0.213623484,7.96414255 0.0730212702,8.87113505 C0.0444293324,9.05569063 0.021156825,9.24189543 0,9.42857143 C0.152691828,8.20783445 0.457531452,7.05385162 0.888888889,6 C0.851955117,6.08929349 0.813872832,6.17740896 0.778571159,6.26835166" id="Fill-7" fill="#338CCE"></path>
                        <path d="M1.77777778,5.57142857 C1.91066667,5.42737347 2.05022222,5.28601378 2.18533333,5.14285714 C2.04933333,5.28571429 1.91155556,5.42737347 1.77777778,5.57142857" id="Fill-9" fill="#338CCE"></path>
                        <path d="M0.0559446313,11.1428571 C0.0473883935,11.2399057 0.0383385267,11.3368691 0.0303581896,11.4338325 C-0.00633490678,11.8828948 -0.00863850924,12.3322125 0.0176883761,12.7797424 L0,12.7687606 C0,12.7687606 0.0415471159,13.4634238 0.230442518,14.4289715 C0.26310431,14.6227281 0.299715135,14.8163995 0.355001594,15.0059847 C0.599101184,16.039211 1.00412386,17.2557229 1.67167495,18.2584726 C1.67496581,18.2634101 1.67809212,18.2676667 1.68138298,18.2725191 C1.97575047,18.7792146 2.30434291,19.2599453 2.66666667,19.7142857 C1.01300918,17.6268058 0.0199919785,14.9574604 0.0199919785,12.047707 C0.0199919785,11.7429406 0.034554037,11.4419199 0.0559446313,11.1428571" id="Fill-11" fill="#338CCE"></path>
                        <path d="M24.0062222,13.7142857 C24.004,13.7305714 24.0022222,13.7468571 24,13.7631429 C24.0022222,13.7468571 24.004,13.7305714 24.0062222,13.7142857" id="Fill-13" fill="#338CCE"></path>
                        <path d="M24.0075556,13.7142857 C24.0053333,13.728 24.0026667,13.7412857 24,13.755 C24.0026667,13.7412857 24.0053333,13.728 24.0075556,13.7142857" id="Fill-15" fill="#338CCE"></path>
                        <path d="M4.76032285,13.3473778 C4.74961308,13.1869596 4.76032285,12.1059863 4.76032285,11.9428777 C4.76032285,7.94200704 8.03921249,4.69866689 12.0840207,4.69866689 C15.146165,4.69866689 17.7680187,6.55835791 18.8617753,9.19760746 L19.711502,9.40645382 C19.8550639,9.44369977 19.9983709,9.48237502 20.1415928,9.52096619 C20.4477562,9.60361352 20.736835,9.68155256 21.017414,9.74141512 C21.4186904,9.82700513 21.7752577,9.88409316 22.1070056,9.91595821 C22.696638,9.97220547 23.1410934,9.99641954 23.5539296,9.99305648 C23.7040364,9.99187941 23.8525282,9.9861622 24,9.97834307 C23.2921352,5.74970886 20.3369186,2.27280382 16.3866284,0.78977611 L16.3866284,0.811131574 C15.1965689,0.35316616 13.9513456,0.0954712827 12.6633683,0.0190456242 C11.4930284,-0.0504857505 10.3337383,0.0731909752 9.19578267,0.343833654 C8.39815979,0.533510535 7.62722633,0.808861505 6.88451227,1.16097444 C5.88722867,1.63382142 4.96984336,2.22429161 4.13694623,2.94289458 C3.3878573,3.58927573 2.73294636,4.30813093 2.1717884,5.09895573 C2.16830347,5.10383217 2.16473355,5.10862454 2.16133362,5.11358506 C2.06826062,5.24516499 1.97909753,5.37985576 1.89120942,5.51547137 C1.86528497,5.55566 1.83868054,5.59526009 1.81326609,5.63578503 C1.75181241,5.73306169 1.69333366,5.83252434 1.63459992,5.93181885 C1.58513099,6.01589548 1.53489706,6.09946765 1.48746808,6.18480543 C1.46069366,6.23264504 1.4354492,6.28157764 1.40926976,6.32983762 C0.802722775,7.45806195 0.374076973,8.69348398 0.15937158,10.0003711 C0.108032682,10.3449172 0.0693585117,10.6917333 0.0370592048,11.0387176 C0.014959679,11.3340788 0,11.6313737 0,11.9323681 C0,14.8061074 1.02584299,17.4424142 2.73430633,19.5040573 C2.76057076,19.535502 2.78726019,19.5666103 2.81377962,19.5977187 C2.88058819,19.6766666 2.94935171,19.7539331 3.01811524,19.8311154 C3.26384496,20.1036919 3.52249441,20.3664313 3.79737851,20.6168956 C4.11076679,20.902588 4.45152448,21.1589377 4.77978743,21.4285714 C4.77978743,21.2946374 4.77961744,21.1607033 4.77961744,21.0266851 C4.77978743,18.1604287 4.76329779,16.2137183 4.76032285,13.3473778" id="Fill-17" fill="#FFFFFF"></path>
                        <path d="M21.6300996,16.6452313 C20.8137397,16.4191891 20.1045451,16.1678145 19.462165,15.87667 L18.3662322,15.4285714 C17.042606,17.6141482 14.7675061,18.8098159 12.0575441,18.9716416 C11.656919,18.9955568 11.3424977,19.0233692 11.0157616,19.0115888 C10.1454261,19.0150432 9.27509054,19.0130945 8.40484234,19.0101716 C7.74665382,19.0078686 7.09702454,19.0643792 6.47237429,19.2858155 C5.74047144,19.5452504 5.13975214,19.9782913 4.77458678,20.6928221 C4.65170046,20.933302 4.5551906,21.1875109 4.44697728,21.4356082 C4.44610389,21.4348996 4.44531784,21.434191 4.44444444,21.433571 L4.44444444,21.4414541 C4.44444444,21.4414541 4.44715196,21.4357854 4.44741398,21.4352539 C4.46872475,21.4574861 4.48697865,21.4840585 4.51125896,21.502482 C5.46133523,22.223833 6.49342304,22.7974418 7.60516424,23.2145393 C8.56685663,23.5753034 9.56068986,23.8007256 10.582559,23.9232242 C11.8233002,24.0720294 13.0508533,23.9960325 14.2696724,23.768573 C14.9890857,23.6342055 15.688673,23.4181722 16.3709672,23.1459826 L16.3709672,23.1835382 C19.3237323,22.0469497 21.7355181,19.7987507 23.1111111,16.9429304 C22.6210506,16.8811053 22.1260118,16.7824333 21.6300996,16.6452313" id="Fill-19" fill="#FFFFFF"></path>
                        <path d="M8,13.5273857 C8.14971682,13.2597824 8.34028176,13.0725636 8.55909178,12.9070941 C9.10727881,12.4928229 9.73179907,12.2160579 10.4353341,12.0791093 C11.0358103,11.9622371 11.6333368,11.9872527 12.2353325,12.0738513 C12.8339316,12.1598922 13.4131346,12.3067992 13.9710644,12.5103498 C14.6869343,12.7714203 15.3921676,13.0556741 16.0998142,13.3342715 C16.3249704,13.4229415 16.5434229,13.5252346 16.7642887,13.6222697 C16.8104998,13.6425849 16.8542976,13.6673615 16.8888889,13.7142857 C16.6682018,13.6712652 16.4453696,13.6352555 16.227364,13.5834716 C15.8557981,13.4952796 15.4889696,13.3908355 15.1168674,13.3047945 C14.6530581,13.1974823 14.1876399,13.0946315 13.7194508,13.0042089 C13.4394133,12.9501146 13.153119,12.9204783 12.8688805,12.8850262 C12.1835796,12.799782 11.4954186,12.7821754 10.805738,12.8300556 C9.91083358,12.892037 9.04891159,13.0678633 8.24196026,13.4296336 C8.17679993,13.4587919 8.10913686,13.4834888 8,13.5273857" id="Fill-21" fill="#FFFFFF"></path>
                        <path d="M31.2628673,7.93336038 C30.79997,7.20415379 30.1600494,6.66440558 29.3880334,6.28401408 C29.1632199,6.17332319 28.9230545,6.09377496 28.6899145,6 C28.6901747,6.01682918 28.6960726,6.03209689 28.7015369,6.04363442 C28.7187101,6.07182763 28.7258223,6.08223743 28.7504546,6.10218955 C29.2033776,6.46913505 29.6249029,6.86574849 29.9639446,7.34364513 C30.7024814,8.38462528 30.9134175,9.51686469 30.516351,10.7368934 C30.258492,11.5290793 29.7680134,12.1680676 29.1171643,12.6838733 C28.1676047,13.4364152 27.061144,13.8088258 25.8793117,13.9464955 C24.8570693,14.0656877 23.8314443,14.0460826 22.8346148,13.7323138 C22.3504678,13.5799837 21.8618973,13.436155 21.390847,13.249299 C20.6000966,12.935617 19.8233971,12.5867151 19.0378507,12.2598474 C18.2294067,11.923524 17.4239983,11.5784391 16.6050595,11.2697018 C15.8844766,10.9980927 15.1532255,10.7504262 14.4150357,10.5314733 C13.7898598,10.3460054 13.1485514,10.2130202 12.4951871,10.1588024 C11.6067747,10.0851531 10.7277295,10.105539 9.87435741,10.4093317 C9.43748018,10.5648715 9.03564333,10.7821761 8.67240295,11.0681854 C8.11201705,11.5093007 7.69656302,12.0676998 7.38865868,12.7066014 C7.28856809,12.9142769 7.21319658,13.1337502 7.11111111,13.3859277 C7.21059457,13.3234688 7.25387464,13.2580606 7.26168067,13.248258 C7.63350768,12.7809447 7.9738504,12.4490455 8.46502287,12.1061293 C8.93503234,11.7779603 9.44780148,11.543306 10.0200699,11.4720857 C10.562155,11.4045954 11.1069288,11.4005183 11.6432028,11.5258696 C12.0535395,11.6217265 12.4715956,11.701535 12.8661468,11.8438891 C13.4728484,12.0629286 14.0686216,12.3155398 14.6574562,12.5796885 C15.2977237,12.8668256 15.9269761,13.1787726 16.5568356,13.4883775 C17.2240774,13.8161995 17.8820386,14.1630193 18.5521425,14.484769 C19.1471351,14.7704313 19.7521021,15.0357077 20.354814,15.3051481 C20.9766073,15.5830898 21.6211248,15.7964039 22.2779585,15.975626 C22.9769447,16.1664724 23.6906756,16.27725 24.4116054,16.2854044 C24.9138798,16.291043 25.4178889,16.2185214 25.9197296,16.1671664 C26.5384005,16.1037533 27.1332196,15.9355483 27.7174572,15.7268318 C28.4340504,15.4709241 29.1066696,15.1299164 29.7112896,14.6665935 C30.8883515,13.7644974 31.6847396,12.6196795 31.9348794,11.1319454 C32.1289892,9.97732491 31.8845739,8.91283596 31.2628673,7.93336038" id="Fill-23" fill="#FFFFFF"></path>
                        <path d="M21.6988778,11.4455094 C22.1426611,11.5915222 22.6079814,11.691304 23.070985,11.7819167 C23.5018118,11.8662111 23.9401893,11.9306263 24.3789959,11.9686127 C24.9625555,12.0190815 25.5470589,12.0089107 26.132163,11.9364822 C26.6501676,11.8723753 27.1293883,11.7214312 27.5820095,11.4995226 C28.1076508,11.241862 28.5401936,10.892433 28.8716582,10.4547029 C28.872602,10.4535471 28.8735459,10.4525455 28.8744897,10.4513897 C29.5719125,9.65498435 29.2669617,8.74238521 29.2669617,8.74238521 C29.2669617,8.74238521 29.2666184,8.74253931 29.2666184,8.74253931 C29.2648165,8.7325226 29.2633579,8.72242884 29.2614701,8.71241213 C29.1941132,8.35481566 29.020015,8.03666961 28.7770153,7.71428571 C28.8010407,7.89204375 28.8214623,8.03975167 28.8410258,8.18761369 C28.8948255,8.59521665 28.8290131,8.98918148 28.6617792,9.36896881 C28.4379141,9.87743232 27.9906128,10.1945767 27.4829906,10.4553193 C26.8292426,10.7911102 26.108395,10.9496824 25.3748484,11.0485396 C24.8727177,11.1162679 24.3609769,11.1497854 23.8531831,11.1532527 C23.3118396,11.1568741 22.7684367,11.1228944 22.2290667,11.0759699 C21.7996986,11.038677 21.3713603,10.9727208 20.9493714,10.8910461 C20.4835363,10.8008187 20.0255952,10.6782296 19.5642219,10.5696639 C19.5613045,10.5731312 19.5584729,10.5765215 19.5555556,10.5799888 C19.7066581,10.6537272 19.8528698,10.7374823 20.0096354,10.7995088 C20.5698561,11.0211092 21.1249284,11.256733 21.6988778,11.4455094" id="Fill-25" fill="#FFFFFF"></path>
                    </g>
                    <g id="Page-1" transform="translate(37.000000, 4.000000)">
                        <g id="Group-3">
                            <mask id="mask-2" fill="white">
                                <use xlink:href="#path-1"></use>
                            </mask>
                            <g id="Clip-2"></g>
                            <path d="M-1.25e-05,13.7926557 L1.8801125,11.4209836 C2.9321125,12.3601311 4.2749875,13.0178361 5.4836125,13.0178361 C6.8489875,13.0178361 7.5203625,12.4540328 7.5203625,11.5383607 C7.5203625,10.5754754 6.6922375,10.2701639 5.4164875,9.70662295 L3.5139875,8.86111475 C2.0143625,8.22727869 0.5819875,6.9122623 0.5819875,4.68131148 C0.5819875,2.14518033 2.7306125,0.125639344 5.7746125,0.125639344 C7.4532375,0.125639344 9.2213625,0.830163934 10.4748625,2.14518033 L8.7961125,4.32904918 C7.8337375,3.55422951 6.9384875,3.10793443 5.7746125,3.10793443 C4.6331125,3.10793443 3.9168625,3.62452459 3.9168625,4.4935082 C3.9168625,5.43278689 4.8793625,5.76157377 6.1327375,6.30163934 L8.0127375,7.10006557 C9.7809875,7.85140984 10.8999875,9.09613115 10.8999875,11.2565246 C10.8999875,13.7926557 8.8857375,16 5.3941125,16 C3.4916125,16 1.4772375,15.2486557 -1.25e-05,13.7926557" id="Fill-1" fill="#FFFFFF" mask="url(#mask-2)"></path>
                        </g>
                        <path d="M21.9875468,7.22394963 C23.8323274,7.22394963 24.7205032,6.39560581 24.7205032,4.8311705 C24.7205032,3.26673519 23.7183641,2.6917641 21.896478,2.6917641 L20.3477984,2.6917641 L20.3477984,7.22394963 L21.9875468,7.22394963 Z M17,0 L22.1013829,0 C25.3581125,0 28,1.19632532 28,4.8311705 C28,8.35114994 25.3353453,9.91558525 22.192579,9.91558525 L20.3477984,9.91558525 L20.3477984,15 L17,15 L17,0 Z" id="Fill-4" fill="#FFFFFF"></path>
                        <path d="M39.1660342,6.90176797 C40.9498879,6.90176797 41.9228049,6.14254266 41.9228049,4.6702186 C41.9228049,3.19776605 40.9498879,2.69165867 39.1660342,2.69165867 L37.4054683,2.69165867 L37.4054683,6.90176797 L39.1660342,6.90176797 Z M34,0 L39.4440659,0 C42.6408487,0 45.2586683,1.10433941 45.2586683,4.6702186 C45.2586683,6.87876893 44.1929878,8.28209587 42.5713731,8.9953231 L46,15 L42.1775487,15 L39.2819562,9.59355513 L37.4054683,9.59355513 L37.4054683,15 L34,15 L34,0 Z" id="Fill-6" fill="#FFFFFF"></path>
                        <polygon id="Fill-8" fill="#FFFFFF" points="52 0 61.7607087 0 61.7607087 2.85265196 55.5168212 2.85265196 55.5168212 5.86642568 60.8277263 5.86642568 60.8277263 8.69633557 55.5168212 8.69633557 55.5168212 12.1472196 62 12.1472196 62 15 52 15"></polygon>
                        <path d="M71.2649527,8.78833173 L74.5915014,8.78833173 L74.2325031,7.40787535 C73.8017318,5.91242376 73.3709605,4.14098369 72.9641135,2.57653498 L72.8684163,2.57653498 C72.4854936,4.16398273 72.0786466,5.91242376 71.6478754,7.40787535 L71.2649527,8.78833173 Z M70.88203,0 L75.11797,0 L80,15 L76.2667379,15 L75.3094981,11.4339923 L70.546956,11.4339923 L69.5897162,15 L66,15 L70.88203,0 Z" id="Fill-10" fill="#FFFFFF"></path>
                        <path d="M88.109598,12.2622382 C90.7162124,12.2622382 92.4539553,11.0199152 92.4539553,7.43081074 C92.4539553,3.84196325 90.7162124,2.7376333 88.109598,2.7376333 L87.4520099,2.7376333 L87.4520099,12.2622382 L88.109598,12.2622382 Z M84,0 L88.3208813,0 C92.9940327,0 96,2.27752795 96,7.43081074 C96,12.5843505 92.9940327,15 88.5086887,15 L84,15 L84,0 Z" id="Fill-12" fill="#FFFFFF"></path>
                        <g id="Group-16" transform="translate(99.000000, 0.000000)">
                            <mask id="mask-4" fill="white">
                                <use xlink:href="#path-3"></use>
                            </mask>
                            <g id="Clip-15"></g>
                            <path d="M4.75437857,9.65508974 L0.0751744898,0.0138076923 L3.82806224,0.0138076923 L5.20566429,3.45701282 C5.6332051,4.58188462 6.03700102,5.61496154 6.46454184,6.76265385 L6.55952143,6.76265385 C7.0109398,5.61496154 7.43834796,4.58188462 7.86602143,3.45701282 L9.26736837,0.0138076923 L12.9252765,0.0138076923 L8.2459398,9.65508974 L8.2459398,14.9809872 L4.75437857,14.9809872 L4.75437857,9.65508974 Z" id="Fill-14" fill="#FFFFFF" mask="url(#mask-4)"></path>
                        </g>
                    </g>
                </g>
            </g>
        </g>
    </g>
</svg>